# xmcd
#
# Track frame offsets:
#	150
#	13247
#	25067
#	36877
#	47413
#	58236
#	70232
#	80274
#	89923
#	103613
#	117003
#	128648
#	141074
#	152686
#	165914
#	176721
#	188533
#	200694
#	212174
#	224685
#	237638
#	249504
#	262979
#	274776
#	286658
#
# Disc length: 3998 seconds
#
# Revision: 0
# Processed by: cddbd v1.5.2PL0 Copyright (c) Steve Scherf et al.
# Submitted via: EZCDAudioConverter 2.2.2.1
#
DISCID=690f9c19
DTITLE=Eddie Kirk - The Gods Were Angry With Me
DYEAR=1900
DGENRE=Country
TTITLE0=A Petal From A Faded Rose (Capitol 1946)
TTITLE1=Blues Stay Away From Me (Capitol Master) voc. with T. Ernie Ford and Mer
TTITLE1=le Travis
TTITLE2=I'd Rather Hear Most Anything (Capitol)
TTITLE3=Blue Bonnet Blues (Capitol 1950)
TTITLE4=No Tears Tomorrow (Capitol 1949)
TTITLE5=You Drove Me To Another's Arms (Capitol 1949)
TTITLE6=Sugar Baby (Capitol 1950)
TTITLE7=An Armful Of Heartaches (Capitol 1950)
TTITLE8=Solitary Blues (Capitol 1951)
TTITLE9=The Gods Were Angry With Me (Capitol 1947) recitation by Tex Ritter
TTITLE10=Promise Me (Capitol 1949)
TTITLE11=You Little Sweet Little You (Capitol 1947)
TTITLE12=Candy Kisses (Capitol 1949)
TTITLE13=Save The Next Waltz For Me (Capitol 1949)
TTITLE14=Saturday Night Time Blues (Capitol 1950)
TTITLE15=Four Hearts (Capitol 1950)
TTITLE16=Born To Lose (Capitol 1947)
TTITLE17=How Do You Mend A Broken Heart (Capitol 1948)
TTITLE18=The Two Years We Were Married ( (Capitol 1949)
TTITLE19=Dear Hearts And Gentle People (Capitol 1949)
TTITLE20=Careless Kisses (Capitol 1949)
TTITLE21=Unfaithful One (Capitol 1950)
TTITLE22=Sowing Teardrops ( Capitol 1951)
TTITLE23=Honey Costs Money (Capitol 1951)
TTITLE24=The Gods Were Angry With Me (Capitol 1947) without recitation
EXTD=
EXTT0=
EXTT1=
EXTT2=
EXTT3=
EXTT4=
EXTT5=
EXTT6=
EXTT7=
EXTT8=
EXTT9=
EXTT10=
EXTT11=
EXTT12=
EXTT13=
EXTT14=
EXTT15=
EXTT16=
EXTT17=
EXTT18=
EXTT19=
EXTT20=
EXTT21=
EXTT22=
EXTT23=
EXTT24=
PLAYORDER=
